<svg width="28" height="28" viewBox="0 0 28 28" fill="none" xmlns="http://www.w3.org/2000/svg">
<path d="M10.6572 24.2355V20.6682C10.6572 19.7576 11.4009 19.0193 12.3182 19.0193H15.6714C16.1119 19.0193 16.5343 19.1931 16.8458 19.5023C17.1573 19.8115 17.3323 20.2309 17.3323 20.6682V24.2355C17.3295 24.6141 17.4791 24.9782 17.7478 25.2469C18.0164 25.5155 18.382 25.6666 18.7634 25.6666H21.0511C22.1196 25.6694 23.1452 25.25 23.9017 24.5009C24.6582 23.7519 25.0833 22.7348 25.0833 21.6741V11.5113C25.0833 10.6545 24.7007 9.8418 24.0387 9.29209L16.2564 3.12183C14.9026 2.03997 12.963 2.0749 11.6496 3.20479L4.04484 9.29209C3.35152 9.82559 2.93713 10.6407 2.91666 11.5113V21.6637C2.91666 23.8745 4.72194 25.6666 6.94886 25.6666H9.18433C9.97642 25.6667 10.6202 25.0322 10.6259 24.2459L10.6572 24.2355Z"/>
</svg>
