<svg width="28" height="28" viewBox="0 0 28 28" fill="none" xmlns="http://www.w3.org/2000/svg">
<path fill-rule="evenodd" clip-rule="evenodd" d="M19.1548 7.54831H19.3937C22.5344 7.54831 25.0833 10.1733 25.0833 13.3933V19.8333C25.0833 23.0533 22.5344 25.6666 19.3937 25.6666H8.60625C5.4656 25.6666 2.91666 23.0533 2.91666 19.8333V13.3933C2.91666 10.1733 5.4656 7.54831 8.60625 7.54831H8.84522C8.86797 6.14831 9.4028 4.84165 10.37 3.86165C11.3486 2.86998 12.6003 2.36831 14.0114 2.33331C16.8334 2.33331 19.1206 4.66665 19.1548 7.54831ZM11.5648 5.10998C10.9276 5.76331 10.5749 6.62665 10.5521 7.54831H17.4479C17.4137 5.63498 15.8889 4.08331 14.0114 4.08331C13.1352 4.08331 12.2248 4.44498 11.5648 5.10998ZM18.3241 12.04C18.802 12.04 19.1775 11.6433 19.1775 11.165V9.81165C19.1775 9.33331 18.802 8.93665 18.3241 8.93665C17.8575 8.93665 17.4706 9.33331 17.4706 9.81165V11.165C17.4706 11.6433 17.8575 12.04 18.3241 12.04ZM10.4269 11.165C10.4269 11.6433 10.0514 12.04 9.57348 12.04C9.10694 12.04 8.72004 11.6433 8.72004 11.165V9.81165C8.72004 9.33331 9.10694 8.93665 9.57348 8.93665C10.0514 8.93665 10.4269 9.33331 10.4269 9.81165V11.165Z"/>
</svg>
